<svg xmlns="http://www.w3.org/2000/svg" width="101.59" height="101.59" data-name="tiktok square" viewBox="0 0 101.59 101.59"><path d="M0,0H101.59V101.59H0Z" data-name="Path 31"/><path fill="#ee1d52" d="M196,142.373l.2.584C196.178,142.893,196.1,142.69,196,142.373Zm8.241-13.321a9,9,0,0,1,3.949-6.743c3.352-2.451,7.53-1.067,7.53-1.067V113a17.329,17.329,0,0,1,3.035.19v10.6s-4.178-1.384-7.53,1.067a9,9,0,0,0-3.949,6.743,9.724,9.724,0,0,0,1.714,5.892c-.356-.19-.711-.406-1.079-.648A9.036,9.036,0,0,1,204.241,129.052Zm31.8-31.29a14.6,14.6,0,0,1-3.492-7.162h2.9a13.554,13.554,0,0,0,3.632,9.715l.064.063a16.114,16.114,0,0,1-3.1-2.616Zm13.956,7.467v10.388a36.32,36.32,0,0,1-6.438-.876,24.4,24.4,0,0,1-6.273-2.578s-1.7-1.117-1.829-1.194V132.43a21.715,21.715,0,0,1-1.27,6.667,19.491,19.491,0,0,1-10.007,10.667,19.1,19.1,0,0,1-7.975,1.752,19.761,19.761,0,0,1-10.743-3.213,21.326,21.326,0,0,1-3.073-2.578l.025.025a19.633,19.633,0,0,0,10.743,3.213,19.1,19.1,0,0,0,7.975-1.752,19.491,19.491,0,0,0,10.007-10.667,21.715,21.715,0,0,0,1.27-6.667V108.429c.14.076,1.829,1.194,1.829,1.194a24.4,24.4,0,0,0,6.273,2.578,36.318,36.318,0,0,0,6.438.876v-8.14A9.855,9.855,0,0,0,249.995,105.229Z" data-name="Path 32" transform="translate(-171.111 -79.095)"/><path fill="#fff" d="M252.9,104.924v8.14a36.318,36.318,0,0,1-6.438-.876,24.4,24.4,0,0,1-6.273-2.578s-1.7-1.117-1.829-1.194v21.461a21.715,21.715,0,0,1-1.27,6.667,19.491,19.491,0,0,1-10.007,10.667,19.1,19.1,0,0,1-7.975,1.752,19.761,19.761,0,0,1-10.743-3.213l-.025-.025a21.452,21.452,0,0,1-1.511-1.714,20.761,20.761,0,0,1-2.87-5.206v-.013a20.937,20.937,0,0,1-1.13-6.933,19.066,19.066,0,0,1,2.324-8.788,20.734,20.734,0,0,1,4.508-5.511,18.919,18.919,0,0,1,5.359-3.175,17.891,17.891,0,0,1,6.654-1.4v8.241s-4.178-1.384-7.53,1.067a8.82,8.82,0,0,0-.267,14.553c.368.241.724.457,1.079.648a8.944,8.944,0,0,0,10.857,2.768,8.338,8.338,0,0,0,4.584-5.041,12.161,12.161,0,0,0,.47-4.165V90.6h7.619a14.487,14.487,0,0,0,3.492,7.162,16.919,16.919,0,0,0,3.1,2.616,16.038,16.038,0,0,0,4.254,3.251,16.215,16.215,0,0,0,3.568,1.3Z" data-name="Path 33" transform="translate(-177.061 -79.095)"/><g data-name="Group 4" transform="translate(22.718 8.953)"><path fill="#69c9d0" d="M187.9,450.4l.19.546C188.065,450.883,187.989,450.692,187.9,450.4Z" data-name="Path 34" transform="translate(-186.757 -402.158)"/><path fill="#69c9d0" d="M194.138,250.847a18.745,18.745,0,0,0-5.359,3.175,20.549,20.549,0,0,0-4.508,5.524,19.006,19.006,0,0,0-2.324,8.788,21.211,21.211,0,0,0,1.13,6.934v.013a20.984,20.984,0,0,0,2.87,5.206,21.452,21.452,0,0,0,1.511,1.714,21.39,21.39,0,0,1-4.559-4.267,20.346,20.346,0,0,1-2.857-5.181v-.025a20.633,20.633,0,0,1-1.13-6.946,19.066,19.066,0,0,1,2.324-8.788,20.549,20.549,0,0,1,4.508-5.524,19.067,19.067,0,0,1,15.061-4.381v2.362a17.9,17.9,0,0,0-6.667,1.4Z" data-name="Path 35" transform="translate(-178.899 -224.497)"/><path fill="#69c9d0" d="M322.031,73.052h-7.619v40.458a12.481,12.481,0,0,1-.47,4.165,8.447,8.447,0,0,1-4.584,5.041,8.57,8.57,0,0,1-8.889-.851,8.25,8.25,0,0,1-1.968-1.9,8.465,8.465,0,0,0,7.81.2,8.372,8.372,0,0,0,4.584-5.041,12.161,12.161,0,0,0,.47-4.165V70.5h10.527A8.912,8.912,0,0,0,322.031,73.052Zm14.4,12.076v2.248a15.1,15.1,0,0,1-7.822-4.546c.394.254.787.483,1.206.7A13.725,13.725,0,0,0,336.431,85.129Z" data-name="Path 36" transform="translate(-283.312 -70.5)"/></g><path fill="none" d="M486.027,695.476a2.764,2.764,0,0,1-.127-.851V694.6A2.869,2.869,0,0,0,486.027,695.476Zm6.286-.876v.025a2.765,2.765,0,0,1-.127.851A2.869,2.869,0,0,0,492.313,694.6Z" data-name="Path 37" transform="translate(-424.197 -606.395)"/><path fill="#69c9d0" d="M456.292,650.1a2.765,2.765,0,0,0,.127.851c0,.025.013.038.013.063a3.216,3.216,0,0,0,3.073,2.26v3.251a7.317,7.317,0,0,1-4.445-.965,6.471,6.471,0,0,1,.279-11.162,7.863,7.863,0,0,1,4.178-.8v3.251a3.208,3.208,0,0,0-3.213,3.213Z" data-name="Path 38" transform="translate(-394.602 -561.871)"/><path fill="#ee1d52" d="M514.425,650.1a2.764,2.764,0,0,1-.127.851c0,.025-.013.038-.013.063a3.216,3.216,0,0,1-3.073,2.26v3.251a7.279,7.279,0,0,0,4.432-.965,6.358,6.358,0,0,0,3.073-5.5,6.433,6.433,0,0,0-3.34-5.664,7.863,7.863,0,0,0-4.178-.8v3.251a3.208,3.208,0,0,1,3.213,3.213v.038Z" data-name="Path 39" transform="translate(-446.284 -561.871)"/><path fill="#fff" d="M119.5,620.4h11.9l-1.1,3.276h-3.111V636.21H123.36V623.676H119.5Zm31.544,0v3.276h3.86V636.21h3.835V623.676h3.111l1.1-3.276Zm-17.054,3.721a1.854,1.854,0,1,0-1.854-1.854A1.848,1.848,0,0,0,133.989,624.121ZM132.135,636.2h3.759V625.429h-3.759Zm17.27-12.165h-4.394l-3.784,3.784V620.4h-3.733l-.013,15.784h3.772V632.07L142.421,631l3.657,5.181H150.1l-5.3-7.568Zm36.039,4.6,4.6-4.6h-4.394l-3.784,3.784V620.4H178.13l-.025,15.8h3.772v-4.114l1.181-1.067,3.657,5.181h4.026Zm-9.664,1.168a6.553,6.553,0,1,1-6.553-6.464A6.509,6.509,0,0,1,175.781,629.8Zm-3.34,0a3.213,3.213,0,1,0-3.213,3.213A3.208,3.208,0,0,0,172.441,629.8Z" data-name="Path 40" transform="translate(-104.325 -541.617)"/></svg>
